HIERARCHY
ROOT Hips
{
    OFFSET   0.000000   0.000000   0.000000
    CHANNELS 6 Xposition Yposition Zposition Zrotation Xrotation Yrotation
    JOINT Chest
    {
        OFFSET   0.000000   8.007230   0.000000
        CHANNELS 3 Zrotation Xrotation Yrotation
        JOINT Chest2
        {
            OFFSET   0.000000  22.077100   0.000000
            CHANNELS 3 Zrotation Xrotation Yrotation
            JOINT Neck
            {
                OFFSET   0.000000  23.255100   0.000000
                CHANNELS 3 Zrotation Xrotation Yrotation
                JOINT Head
                {
                    OFFSET   0.000000  14.370100   1.956600
                    CHANNELS 3 Zrotation Xrotation Yrotation
                    End Site
                    {
                        OFFSET   0.000000  19.566000   0.000000
                    }
                }
            }
            JOINT LeftCollar
            {
                OFFSET   3.911900  19.017000  -0.467063
                CHANNELS 3 Zrotation Xrotation Yrotation
                JOINT LeftShoulder
                {
                    OFFSET  10.383700   0.000000   0.000000
                    CHANNELS 3 Zrotation Xrotation Yrotation
                    JOINT LeftElbow
                    {
                        OFFSET  26.662100   0.001193   0.000980
                        CHANNELS 3 Zrotation Xrotation Yrotation
                        JOINT LeftWrist
                        {
                            OFFSET  28.869000  -0.000059  -0.000082
                            CHANNELS 3 Zrotation Xrotation Yrotation
                            JOINT LeftFinger0
                            {
                                OFFSET   2.044650  -2.323450   3.252850
                                CHANNELS 3 Zrotation Xrotation Yrotation
                                JOINT LeftFinger01
                                {
                                    OFFSET   3.088130   0.000000   0.000000
                                    CHANNELS 3 Zrotation Xrotation Yrotation
                                    JOINT LeftFinger02
                                    {
                                        OFFSET   2.639460   0.000000   0.000000
                                        CHANNELS 3 Zrotation Xrotation Yrotation
                                        End Site
                                        {
                                            OFFSET   2.582190   0.000000   0.000000
                                        }
                                    }
                                }
                            }
                            JOINT LeftFinger1
                            {
                                OFFSET   8.364480   0.000000   3.252850
                                CHANNELS 3 Zrotation Xrotation Yrotation
                                JOINT LeftFinger11
                                {
                                    OFFSET   4.646930   0.000000   0.000000
                                    CHANNELS 3 Zrotation Xrotation Yrotation
                                    JOINT LeftFinger12
                                    {
                                        OFFSET   2.323470   0.000000   0.000000
                                        CHANNELS 3 Zrotation Xrotation Yrotation
                                        End Site
                                        {
                                            OFFSET   2.273050   0.000000   0.000000
                                        }
                                    }
                                }
                            }
                            JOINT LeftFinger2
                            {
                                OFFSET   8.364490   0.000016   1.078090
                                CHANNELS 3 Zrotation Xrotation Yrotation
                                JOINT LeftFinger21
                                {
                                    OFFSET   5.111610   0.000000   0.000000
                                    CHANNELS 3 Zrotation Xrotation Yrotation
                                    JOINT LeftFinger22
                                    {
                                        OFFSET   2.788150   0.000016   0.000000
                                        CHANNELS 3 Zrotation Xrotation Yrotation
                                        End Site
                                        {
                                            OFFSET   2.727660   0.000000   0.000000
                                        }
                                    }
                                }
                            }
                            JOINT LeftFinger3
                            {
                                OFFSET   7.899780   0.000015  -1.078090
                                CHANNELS 3 Zrotation Xrotation Yrotation
                                JOINT LeftFinger31
                                {
                                    OFFSET   4.646930   0.000000   0.000000
                                    CHANNELS 3 Zrotation Xrotation Yrotation
                                    JOINT LeftFinger32
                                    {
                                        OFFSET   2.323470   0.000000   0.000000
                                        CHANNELS 3 Zrotation Xrotation Yrotation
                                        End Site
                                        {
                                            OFFSET   2.273050   0.000000   0.000000
                                        }
                                    }
                                }
                            }
                            JOINT LeftFinger4
                            {
                                OFFSET   7.435090   0.000000  -3.252850
                                CHANNELS 3 Zrotation Xrotation Yrotation
                                JOINT LeftFinger41
                                {
                                    OFFSET   3.717550   0.000000   0.000000
                                    CHANNELS 3 Zrotation Xrotation Yrotation
                                    JOINT LeftFinger42
                                    {
                                        OFFSET   1.858770   0.000000   0.000000
                                        CHANNELS 3 Zrotation Xrotation Yrotation
                                        End Site
                                        {
                                            OFFSET   1.818440   0.000000   0.000000
                                        }
                                    }
                                }
                            }
                        }
                    }
                }
            }
            JOINT RightCollar
            {
                OFFSET  -3.911910  19.017000  -0.467062
                CHANNELS 3 Zrotation Xrotation Yrotation
                JOINT RightShoulder
                {
                    OFFSET -10.383700   0.000014   0.000000
                    CHANNELS 3 Zrotation Xrotation Yrotation
                    JOINT RightElbow
                    {
                        OFFSET -26.662100   0.001225   0.001091
                        CHANNELS 3 Zrotation Xrotation Yrotation
                        JOINT RightWrist
                        {
                            OFFSET -28.869000  -0.000020  -0.000085
                            CHANNELS 3 Zrotation Xrotation Yrotation
                            JOINT RightFinger0
                            {
                                OFFSET  -2.044650  -2.323490   3.252850
                                CHANNELS 3 Zrotation Xrotation Yrotation
                                JOINT RightFinger01
                                {
                                    OFFSET  -3.088130   0.000000   0.000000
                                    CHANNELS 3 Zrotation Xrotation Yrotation
                                    JOINT RightFinger02
                                    {
                                        OFFSET  -2.639460   0.000000   0.000000
                                        CHANNELS 3 Zrotation Xrotation Yrotation
                                        End Site
                                        {
                                            OFFSET  -2.582190   0.000000   0.000000
                                        }
                                    }
                                }
                            }
                            JOINT RightFinger1
                            {
                                OFFSET  -8.364480   0.000000   3.252850
                                CHANNELS 3 Zrotation Xrotation Yrotation
                                JOINT RightFinger11
                                {
                                    OFFSET  -4.646930   0.000000   0.000000
                                    CHANNELS 3 Zrotation Xrotation Yrotation
                                    JOINT RightFinger12
                                    {
                                        OFFSET  -2.323470   0.000000   0.000000
                                        CHANNELS 3 Zrotation Xrotation Yrotation
                                        End Site
                                        {
                                            OFFSET  -2.273050   0.000000   0.000000
                                        }
                                    }
                                }
                            }
                            JOINT RightFinger2
                            {
                                OFFSET  -8.364480   0.000000   1.078090
                                CHANNELS 3 Zrotation Xrotation Yrotation
                                JOINT RightFinger21
                                {
                                    OFFSET  -5.111620   0.000000   0.000000
                                    CHANNELS 3 Zrotation Xrotation Yrotation
                                    JOINT RightFinger22
                                    {
                                        OFFSET  -2.788160   0.000000   0.000000
                                        CHANNELS 3 Zrotation Xrotation Yrotation
                                        End Site
                                        {
                                            OFFSET  -2.727660   0.000000   0.000000
                                        }
                                    }
                                }
                            }
                            JOINT RightFinger3
                            {
                                OFFSET  -7.899780   0.000000  -1.078090
                                CHANNELS 3 Zrotation Xrotation Yrotation
                                JOINT RightFinger31
                                {
                                    OFFSET  -4.646930   0.000000   0.000000
                                    CHANNELS 3 Zrotation Xrotation Yrotation
                                    JOINT RightFinger32
                                    {
                                        OFFSET  -2.323470   0.000000   0.000000
                                        CHANNELS 3 Zrotation Xrotation Yrotation
                                        End Site
                                        {
                                            OFFSET  -2.273050   0.000000   0.000000
                                        }
                                    }
                                }
                            }
                            JOINT RightFinger4
                            {
                                OFFSET  -7.435090   0.000000  -3.252850
                                CHANNELS 3 Zrotation Xrotation Yrotation
                                JOINT RightFinger41
                                {
                                    OFFSET  -3.717550   0.000000   0.000000
                                    CHANNELS 3 Zrotation Xrotation Yrotation
                                    JOINT RightFinger42
                                    {
                                        OFFSET  -1.858760   0.000000   0.000000
                                        CHANNELS 3 Zrotation Xrotation Yrotation
                                        End Site
                                        {
                                            OFFSET  -1.818440   0.000000   0.000000
                                        }
                                    }
                                }
                            }
                        }
                    }
                }
            }
        }
    }
    JOINT LeftHip
    {
        OFFSET   9.783030   0.000000   0.000000
        CHANNELS 3 Zrotation Xrotation Yrotation
        JOINT LeftKnee
        {
            OFFSET   0.000063 -41.789100   0.000608
            CHANNELS 3 Zrotation Xrotation Yrotation
            JOINT LeftAnkle
            {
                OFFSET   0.000048 -41.133200  -0.000184
                CHANNELS 3 Zrotation Xrotation Yrotation
                JOINT LeftToe
                {
                    OFFSET   0.000000  -6.358960  14.674500
                    CHANNELS 3 Zrotation Xrotation Yrotation
                    End Site
                    {
                        OFFSET   0.000000   0.000000   3.913200
                    }
                }
            }
        }
    }
    JOINT RightHip
    {
        OFFSET  -9.783030   0.000000   0.000000
        CHANNELS 3 Zrotation Xrotation Yrotation
        JOINT RightKnee
        {
            OFFSET   0.000071 -41.789100   0.001239
            CHANNELS 3 Zrotation Xrotation Yrotation
            JOINT RightAnkle
            {
                OFFSET   0.000037 -41.133200  -0.000166
                CHANNELS 3 Zrotation Xrotation Yrotation
                JOINT RightToe
                {
                    OFFSET   0.000000  -6.358960  14.674500
                    CHANNELS 3 Zrotation Xrotation Yrotation
                    End Site
                    {
                        OFFSET   0.000000   0.000000   3.913200
                    }
                }
            }
        }
    }
}
MOTION
Frames: 4
Frame Time:   0.016667
  0.969858  90.098600  -2.480600  -0.994885  -4.730990  -0.978031  -0.248236   3.999860  -0.609834  -0.455333   8.002120  -1.206670   1.480720  -0.137443   0.001926   2.447000  -0.278590   8.738180  -5.311540  -1.923330   6.335990 -71.865500  17.829000  -1.635410  -4.124220  -5.376330 -16.723300  14.198400   4.447690   6.355870  44.779200  37.157800 -77.459000 -22.939100   0.005231   0.004776  -6.469570  -0.001210   0.005516 -26.629600   7.133850 -13.911000 -22.500800  -0.000174  -0.000241 -15.750600  -0.007805  -0.000099 -28.330200  -0.057080   0.105864 -34.512300  -0.003865  -0.003544 -22.985200  -0.006369  -0.002366 -26.549900  -0.053758   0.107599 -26.550000  -0.008044   0.000624 -17.682300  -0.002995  -0.001355 -24.386700  -1.213850   2.675400 -36.622700  -0.001934  -0.008846 -24.390700  -0.008595  -0.000727   9.983870   2.142370   8.518390  69.195100   1.984690   2.741350   1.602520 -11.983100  12.574100 -14.572400 -10.892900  -0.720443 -39.316800  36.702500  73.732800  31.309600   0.004852  -0.002957  10.654800   0.001428  -0.008476  31.291100   3.074800   5.043450  25.712600  -0.013329  -0.002937  17.998800  -0.004094  -0.003434  27.922400  -1.314460  -2.478490  31.685600  -0.006703   0.001474  21.102600   0.003812   0.007328  28.225200  -3.087930  -5.727680  35.052200  -0.003975   0.003330  23.344800   0.001552   0.000615  34.673000  -3.711160  -5.345760  52.269600  -0.000634   0.003827  34.811500  -0.001397   0.003680   0.709996   4.483450   3.952280   0.328816   0.177099  16.359800  -4.479080  -1.939430   5.871780  -0.000000   0.000000  -0.000000   1.319930   2.539690  -6.821730  -1.872320   6.152160  -9.998590  -7.922270  -0.090627   2.213380  -0.000000   0.000000  -0.000000
  0.968613  90.098600  -2.470230  -0.997929  -4.754980  -0.999640  -0.248381   4.010760  -0.609965  -0.455544   8.023910  -1.206880   1.480920  -0.133560   0.001976   2.446780  -0.270339   8.774360  -5.317420  -1.932340   6.335660 -71.870800  17.858500  -1.651450  -4.106060  -5.365210 -16.725400  14.204600   4.466980   6.330970  44.793400  37.163900 -77.481400 -22.920800   0.005222   0.004765  -6.460400  -0.001208   0.005503 -26.634000   7.143720 -13.926800 -22.506300  -0.000177  -0.000245 -15.754400  -0.007796  -0.000104 -28.330700  -0.046702   0.086647 -34.501600  -0.003861  -0.003552 -22.978100  -0.006361  -0.002373 -26.537800  -0.043960   0.088086 -26.537800  -0.008045   0.000617 -17.674200  -0.002994  -0.001358 -24.374800  -1.196740   2.639230 -36.603100  -0.001931  -0.008850 -24.377600  -0.008592  -0.000737   9.985480   2.126780   8.537390  69.199300   2.005440   2.740180   1.603370 -11.978500  12.581100 -14.572000 -10.820800  -0.656333 -39.277200  36.658300  73.715500  31.364500   0.004850  -0.002923  10.682300   0.001428  -0.008478  31.275600   3.070710   5.039650  25.700200  -0.013331  -0.002932  17.990200  -0.004094  -0.003426  27.911500  -1.333530  -2.516310  31.625500  -0.006695   0.001485  21.062600   0.003823   0.007345  28.222200  -3.102620  -5.756340  35.001500  -0.003958   0.003203  23.311100   0.001549   0.000542  34.648800  -3.726420  -5.374370  52.235000  -0.000631   0.003712  34.788500  -0.001394   0.003696   0.712250   4.503120   3.956010   0.323694   0.204919  16.371600  -4.480930  -1.958160   5.871720  -0.000000   0.000000  -0.000000   1.330770   2.567230  -6.831120  -1.882410   6.152430  -9.990110  -7.921800  -0.100231   2.231100   0.000000   0.000000   0.000000
  0.965403  90.098600  -2.452600  -1.003520  -4.796580  -1.031520  -0.248449   4.028800  -0.610102  -0.455450   8.059990  -1.207140   1.481220  -0.121899   0.002026   2.445640  -0.246280   8.830890  -5.328940  -1.945090   6.333180 -71.882300  17.906000  -1.667660  -4.079500  -5.353690 -16.742000  14.216800   4.515980   6.283770  44.808300  37.167700 -77.504800 -22.893900   0.005196   0.004727  -6.446940  -0.001207   0.005480 -26.643100   7.160810 -13.953300 -22.516800  -0.000187  -0.000258 -15.761800  -0.007773  -0.000114 -28.331200  -0.027526   0.051102 -34.485500  -0.003850  -0.003576 -22.967400  -0.006340  -0.002392 -26.525700  -0.025875   0.051981 -26.525700  -0.008045   0.000602 -17.666100  -0.002993  -0.001364 -24.359200  -1.169090   2.580290 -36.578400  -0.001922  -0.008866 -24.361200  -0.008582  -0.000762   9.989050   2.098180   8.556320  69.211900   2.036510   2.731780   1.613190 -11.971900  12.631400 -14.580500 -10.736300  -0.592231 -39.098500  36.521600  73.599300  31.425500   0.004836  -0.002875  10.712700   0.001424  -0.008480  31.262300   3.053900   5.014660  25.687900  -0.013338  -0.002919  17.981600  -0.004093  -0.003407  27.896900  -1.353400  -2.554730  31.539000  -0.006678   0.001516  21.005000   0.003853   0.007391  28.219200  -3.117300  -5.785010  34.945600  -0.003941   0.002971  23.273800   0.001544   0.000468  34.605000  -3.741680  -5.402990  52.172200  -0.000622   0.003498  34.746600  -0.001388   0.003733   0.716711   4.542630   3.962930   0.318538   0.232729  16.389100  -4.481950  -1.985220   5.870900  -0.000000   0.000000   0.000000   1.349480   2.614930  -6.845930  -1.898610   6.153480  -9.977180  -7.921110  -0.115021   2.256620   0.000000   0.000000  -0.000000
  0.959851  90.098600  -2.437650  -1.009060  -4.833260  -1.047650  -0.248551   4.042330  -0.606323  -0.455846   8.087060  -1.199520   1.481360  -0.101075   0.002014   2.443980  -0.204266   8.866440  -5.341640  -1.951040   6.317740 -71.889400  17.948800  -1.667670  -4.063920  -5.353520 -16.775400  14.238700   4.572190   6.219050  44.739100  37.083800 -77.444800 -22.877900   0.005151   0.004653  -6.438930  -0.001213   0.005459 -26.653500   7.179860 -13.980600 -22.528500  -0.000201  -0.000281 -15.769900  -0.007739  -0.000128 -28.331100  -0.002708   0.005005 -34.480600  -0.003831  -0.003620 -22.964200  -0.006307  -0.002421 -26.527400  -0.002529   0.005127 -26.527500  -0.008047   0.000582 -17.667200  -0.002989  -0.001375 -24.358300  -1.144090   2.525340 -36.575000  -0.001909  -0.008896 -24.359000  -0.008567  -0.000798   9.998840   2.067770   8.553990  69.230600   2.056980   2.697570   1.632300 -12.001000  12.786500 -14.596000 -10.721800  -0.626990 -38.875800  36.219200  73.287700  31.432500   0.004799  -0.002859  10.716200   0.001409  -0.008447  31.276500   3.007130   4.933670  25.695200  -0.013351  -0.002905  17.986700  -0.004088  -0.003376  27.891100  -1.354330  -2.555420  31.493000  -0.006656   0.001567  20.974400   0.003899   0.007462  28.223400  -3.094520  -5.742310  34.939500  -0.003950   0.002674  23.269700   0.001536   0.000795  34.552600  -3.710470  -5.366220  52.093800  -0.000609   0.003217  34.694400  -0.001380   0.003784   0.721985   4.588950   3.970010   0.313653   0.232145  16.398600  -4.478610  -1.997900   5.868310   0.000000   0.000000   0.000000   1.366130   2.657240  -6.855650  -1.910360   6.155420  -9.970270  -7.920740  -0.124025   2.268500  -0.000000   0.000000   0.000000
